<svg xmlns="http://www.w3.org/2000/svg" xmlns:xlink="http://www.w3.org/1999/xlink" width="292" height="447" viewBox="0 0 292 447">
  <defs>
    <clipPath id="clip-path">
      <rect id="Rectangle_41" data-name="Rectangle 41" width="447" height="292" transform="translate(629 556)" fill="#fc9b17"/>
    </clipPath>
  </defs>
  <g id="hatched3" transform="translate(-556 1076) rotate(-90)" clip-path="url(#clip-path)">
    <g id="Group_3" data-name="Group 3" transform="translate(-5.617 11.886)">
      <g id="Group_2" data-name="Group 2" transform="translate(0 63)">
        <rect id="Rectangle_17" data-name="Rectangle 17" width="554" height="3" transform="matrix(0.819, -0.574, 0.574, 0.819, 620.095, 798.881)" fill="#fc9b17"/>
        <rect id="Rectangle_30" data-name="Rectangle 30" width="554" height="3" transform="matrix(0.819, -0.574, 0.574, 0.819, 633.095, 814.871)" fill="#fc9b17"/>
        <rect id="Rectangle_31" data-name="Rectangle 31" width="554" height="3" transform="matrix(0.819, -0.574, 0.574, 0.819, 645.095, 832.871)" fill="#fc9b17"/>
        <rect id="Rectangle_32" data-name="Rectangle 32" width="554" height="3" transform="matrix(0.819, -0.574, 0.574, 0.819, 656, 847.871)" fill="#fc9b17"/>
        <rect id="Rectangle_33" data-name="Rectangle 33" width="554" height="3" transform="matrix(0.819, -0.574, 0.574, 0.819, 666, 864.871)" fill="#fc9b17"/>
        <rect id="Rectangle_34" data-name="Rectangle 34" width="554" height="3" transform="matrix(0.819, -0.574, 0.574, 0.819, 681, 879.871)" fill="#fc9b17"/>
        <rect id="Rectangle_35" data-name="Rectangle 35" width="554" height="3" transform="matrix(0.819, -0.574, 0.574, 0.819, 695, 895.871)" fill="#fc9b17"/>
        <rect id="Rectangle_36" data-name="Rectangle 36" width="554" height="3" transform="matrix(0.819, -0.574, 0.574, 0.819, 710, 909.871)" fill="#fc9b17"/>
        <rect id="Rectangle_37" data-name="Rectangle 37" width="554" height="3" transform="matrix(0.819, -0.574, 0.574, 0.819, 725, 924.871)" fill="#fc9b17"/>
        <rect id="Rectangle_38" data-name="Rectangle 38" width="554" height="3" transform="matrix(0.819, -0.574, 0.574, 0.819, 738, 942.652)" fill="#fc9b17"/>
        <rect id="Rectangle_39" data-name="Rectangle 39" width="554" height="3" transform="matrix(0.819, -0.574, 0.574, 0.819, 753.234, 956.761)" fill="#fc9b17"/>
        <rect id="Rectangle_40" data-name="Rectangle 40" width="554" height="3" transform="matrix(0.819, -0.574, 0.574, 0.819, 769.234, 969.761)" fill="#fc9b17"/>
        <rect id="Rectangle_18" data-name="Rectangle 18" width="554" height="3" transform="matrix(0.819, -0.574, 0.574, 0.819, 620.469, 773.881)" fill="#fc9b17"/>
        <rect id="Rectangle_19" data-name="Rectangle 19" width="554" height="3" transform="matrix(0.819, -0.574, 0.574, 0.819, 620.469, 749.761)" fill="#fc9b17"/>
        <rect id="Rectangle_20" data-name="Rectangle 20" width="554" height="3" transform="matrix(0.819, -0.574, 0.574, 0.819, 613.469, 729.761)" fill="#fc9b17"/>
        <rect id="Rectangle_21" data-name="Rectangle 21" width="554" height="3" transform="matrix(0.819, -0.574, 0.574, 0.819, 606.469, 712.761)" fill="#fc9b17"/>
        <rect id="Rectangle_22" data-name="Rectangle 22" width="554" height="3" transform="matrix(0.819, -0.574, 0.574, 0.819, 595.469, 697.761)" fill="#fc9b17"/>
        <rect id="Rectangle_23" data-name="Rectangle 23" width="554" height="3" transform="matrix(0.819, -0.574, 0.574, 0.819, 583.469, 680.761)" fill="#fc9b17"/>
        <rect id="Rectangle_24" data-name="Rectangle 24" width="554" height="3" transform="matrix(0.819, -0.574, 0.574, 0.819, 569.469, 666.761)" fill="#fc9b17"/>
        <rect id="Rectangle_25" data-name="Rectangle 25" width="554" height="3" transform="matrix(0.819, -0.574, 0.574, 0.819, 552.469, 654.761)" fill="#fc9b17"/>
        <rect id="Rectangle_26" data-name="Rectangle 26" width="554" height="3" transform="matrix(0.819, -0.574, 0.574, 0.819, 541.469, 638.771)" fill="#fc9b17"/>
        <rect id="Rectangle_27" data-name="Rectangle 27" width="554" height="3" transform="matrix(0.819, -0.574, 0.574, 0.819, 525.469, 624.771)" fill="#fc9b17"/>
        <rect id="Rectangle_28" data-name="Rectangle 28" width="554" height="3" transform="matrix(0.819, -0.574, 0.574, 0.819, 506.469, 613.771)" fill="#fc9b17"/>
        <rect id="Rectangle_29" data-name="Rectangle 29" width="554" height="3" transform="matrix(0.819, -0.574, 0.574, 0.819, 491.469, 599.771)" fill="#fc9b17"/>
      </g>
    </g>
  </g>
</svg>
