<svg xmlns="http://www.w3.org/2000/svg" xmlns:xlink="http://www.w3.org/1999/xlink" width="292" height="447" viewBox="0 0 292 447"><defs><style>.a{fill:#fc9b17;}.b{clip-path:url(#a);}</style><clipPath id="a"><rect class="a" width="447" height="292" transform="translate(629 556)"/></clipPath></defs><g class="b" transform="translate(-556 1076) rotate(-90)"><g transform="translate(-5.617 11.886)"><g transform="translate(0 63)"><rect class="a" width="554" height="3" transform="matrix(0.819, -0.574, 0.574, 0.819, 620.095, 798.881)"/><rect class="a" width="554" height="3" transform="matrix(0.819, -0.574, 0.574, 0.819, 633.095, 814.871)"/><rect class="a" width="554" height="3" transform="matrix(0.819, -0.574, 0.574, 0.819, 645.095, 832.871)"/><rect class="a" width="554" height="3" transform="matrix(0.819, -0.574, 0.574, 0.819, 656, 847.871)"/><rect class="a" width="554" height="3" transform="matrix(0.819, -0.574, 0.574, 0.819, 666, 864.871)"/><rect class="a" width="554" height="3" transform="matrix(0.819, -0.574, 0.574, 0.819, 681, 879.871)"/><rect class="a" width="554" height="3" transform="matrix(0.819, -0.574, 0.574, 0.819, 695, 895.871)"/><rect class="a" width="554" height="3" transform="matrix(0.819, -0.574, 0.574, 0.819, 710, 909.871)"/><rect class="a" width="554" height="3" transform="matrix(0.819, -0.574, 0.574, 0.819, 725, 924.871)"/><rect class="a" width="554" height="3" transform="matrix(0.819, -0.574, 0.574, 0.819, 738, 942.652)"/><rect class="a" width="554" height="3" transform="matrix(0.819, -0.574, 0.574, 0.819, 753.234, 956.761)"/><rect class="a" width="554" height="3" transform="matrix(0.819, -0.574, 0.574, 0.819, 769.234, 969.761)"/><rect class="a" width="554" height="3" transform="matrix(0.819, -0.574, 0.574, 0.819, 620.469, 773.881)"/><rect class="a" width="554" height="3" transform="matrix(0.819, -0.574, 0.574, 0.819, 620.469, 749.761)"/><rect class="a" width="554" height="3" transform="matrix(0.819, -0.574, 0.574, 0.819, 613.469, 729.761)"/><rect class="a" width="554" height="3" transform="matrix(0.819, -0.574, 0.574, 0.819, 606.469, 712.761)"/><rect class="a" width="554" height="3" transform="matrix(0.819, -0.574, 0.574, 0.819, 595.469, 697.761)"/><rect class="a" width="554" height="3" transform="matrix(0.819, -0.574, 0.574, 0.819, 583.469, 680.761)"/><rect class="a" width="554" height="3" transform="matrix(0.819, -0.574, 0.574, 0.819, 569.469, 666.761)"/><rect class="a" width="554" height="3" transform="matrix(0.819, -0.574, 0.574, 0.819, 552.469, 654.761)"/><rect class="a" width="554" height="3" transform="matrix(0.819, -0.574, 0.574, 0.819, 541.469, 638.771)"/><rect class="a" width="554" height="3" transform="matrix(0.819, -0.574, 0.574, 0.819, 525.469, 624.771)"/><rect class="a" width="554" height="3" transform="matrix(0.819, -0.574, 0.574, 0.819, 506.469, 613.771)"/><rect class="a" width="554" height="3" transform="matrix(0.819, -0.574, 0.574, 0.819, 491.469, 599.771)"/></g></g></g></svg>