<svg xmlns="http://www.w3.org/2000/svg" xmlns:xlink="http://www.w3.org/1999/xlink" width="311" height="203" viewBox="0 0 311 203">
  <defs>
    <clipPath id="clip-path">
      <rect id="Rectangle_41" data-name="Rectangle 41" width="311" height="203" transform="translate(629 556.302)" fill="#fff"/>
    </clipPath>
  </defs>
  <g id="hatched3" transform="translate(-629 -556.302)" opacity="0.336" clip-path="url(#clip-path)">
    <g id="Group_3" data-name="Group 3" transform="translate(529.334 417.375)">
      <g id="Group_2" data-name="Group 2" transform="translate(0 0)">
        <rect id="Rectangle_17" data-name="Rectangle 17" width="385.718" height="2.089" transform="matrix(0.819, -0.574, 0.574, 0.819, 89.555, 359.867)" fill="#fff"/>
        <rect id="Rectangle_30" data-name="Rectangle 30" width="385.718" height="2.089" transform="matrix(0.819, -0.574, 0.574, 0.819, 98.606, 371)" fill="#fff"/>
        <rect id="Rectangle_31" data-name="Rectangle 31" width="385.718" height="2.089" transform="matrix(0.819, -0.574, 0.574, 0.819, 106.961, 383.532)" fill="#fff"/>
        <rect id="Rectangle_32" data-name="Rectangle 32" width="385.718" height="2.089" transform="matrix(0.819, -0.574, 0.574, 0.819, 114.553, 393.976)" fill="#fff"/>
        <rect id="Rectangle_33" data-name="Rectangle 33" width="385.718" height="2.089" transform="matrix(0.819, -0.574, 0.574, 0.819, 121.516, 405.812)" fill="#fff"/>
        <rect id="Rectangle_34" data-name="Rectangle 34" width="385.718" height="2.089" transform="matrix(0.819, -0.574, 0.574, 0.819, 131.959, 416.255)" fill="#fff"/>
        <rect id="Rectangle_35" data-name="Rectangle 35" width="385.718" height="2.089" transform="matrix(0.819, -0.574, 0.574, 0.819, 141.707, 427.395)" fill="#fff"/>
        <rect id="Rectangle_36" data-name="Rectangle 36" width="385.718" height="2.089" transform="matrix(0.819, -0.574, 0.574, 0.819, 152.15, 437.143)" fill="#fff"/>
        <rect id="Rectangle_37" data-name="Rectangle 37" width="385.718" height="2.089" transform="matrix(0.819, -0.574, 0.574, 0.819, 162.594, 447.586)" fill="#fff"/>
        <rect id="Rectangle_38" data-name="Rectangle 38" width="385.718" height="2.089" transform="matrix(0.819, -0.574, 0.574, 0.819, 171.645, 459.966)" fill="#fff"/>
        <rect id="Rectangle_39" data-name="Rectangle 39" width="385.718" height="2.089" transform="matrix(0.819, -0.574, 0.574, 0.819, 182.252, 469.79)" fill="#fff"/>
        <rect id="Rectangle_40" data-name="Rectangle 40" width="385.718" height="2.089" transform="matrix(0.819, -0.574, 0.574, 0.819, 193.392, 478.841)" fill="#fff"/>
        <rect id="Rectangle_18" data-name="Rectangle 18" width="385.718" height="2.089" transform="matrix(0.819, -0.574, 0.574, 0.819, 89.815, 342.461)" fill="#fff"/>
        <rect id="Rectangle_19" data-name="Rectangle 19" width="385.718" height="2.089" transform="matrix(0.819, -0.574, 0.574, 0.819, 89.815, 325.668)" fill="#fff"/>
        <rect id="Rectangle_20" data-name="Rectangle 20" width="385.718" height="2.089" transform="matrix(0.819, -0.574, 0.574, 0.819, 84.941, 311.743)" fill="#fff"/>
        <rect id="Rectangle_21" data-name="Rectangle 21" width="385.718" height="2.089" transform="matrix(0.819, -0.574, 0.574, 0.819, 80.068, 299.907)" fill="#fff"/>
        <rect id="Rectangle_22" data-name="Rectangle 22" width="385.718" height="2.089" transform="matrix(0.819, -0.574, 0.574, 0.819, 72.409, 289.463)" fill="#fff"/>
        <rect id="Rectangle_23" data-name="Rectangle 23" width="385.718" height="2.089" transform="matrix(0.819, -0.574, 0.574, 0.819, 64.054, 277.627)" fill="#fff"/>
        <rect id="Rectangle_24" data-name="Rectangle 24" width="385.718" height="2.089" transform="matrix(0.819, -0.574, 0.574, 0.819, 54.307, 267.88)" fill="#fff"/>
        <rect id="Rectangle_25" data-name="Rectangle 25" width="385.718" height="2.089" transform="matrix(0.819, -0.574, 0.574, 0.819, 42.471, 259.525)" fill="#fff"/>
        <rect id="Rectangle_26" data-name="Rectangle 26" width="385.718" height="2.089" transform="matrix(0.819, -0.574, 0.574, 0.819, 34.812, 248.392)" fill="#fff"/>
        <rect id="Rectangle_27" data-name="Rectangle 27" width="385.718" height="2.089" transform="matrix(0.819, -0.574, 0.574, 0.819, 23.672, 238.645)" fill="#fff"/>
        <rect id="Rectangle_28" data-name="Rectangle 28" width="385.718" height="2.089" transform="matrix(0.819, -0.574, 0.574, 0.819, 10.444, 230.986)" fill="#fff"/>
        <rect id="Rectangle_29" data-name="Rectangle 29" width="385.718" height="2.089" transform="matrix(0.819, -0.574, 0.574, 0.819, 0, 221.239)" fill="#fff"/>
      </g>
    </g>
  </g>
</svg>
