<svg xmlns="http://www.w3.org/2000/svg" xmlns:xlink="http://www.w3.org/1999/xlink" width="360" height="367" viewBox="0 0 360 367">
  <defs>
    <clipPath id="clip-path">
      <rect id="Rectangle_16" data-name="Rectangle 16" width="360" height="367" transform="translate(1279 623)" fill="#a19ab2" stroke="#707070" stroke-width="1"/>
    </clipPath>
  </defs>
  <g id="Mask_Group_1" data-name="Mask Group 1" transform="translate(-1279 -623)" opacity="0.27" clip-path="url(#clip-path)">
    <g id="Group_1" data-name="Group 1" transform="translate(-22.425)">
      <g id="Path_1" data-name="Path 1" transform="matrix(0.809, -0.588, 0.588, 0.809, 1271, 646.793)" fill="#a19ab2">
        <path d="M 502.5971984863281 44.53014755249023 L 1.360123753547668 13.17496585845947 L 0.5359072089195251 0.5344712734222412 L 501.7729187011719 31.88965225219727 L 502.5971984863281 44.53014755249023 Z" stroke="none"/>
        <path d="M 1.071807861328125 1.069011688232422 L 1.8304443359375 12.703369140625 L 502.061279296875 43.99560546875 L 501.3026428222656 32.36124801635742 L 1.071807861328125 1.069011688232422 M 0 -3.814697265625e-06 L 502.2432556152344 31.41812133789062 L 503.1331176757812 45.06462097167969 L 0.889801025390625 13.6464958190918 L 0 -3.814697265625e-06 Z" stroke="none" fill="#707070"/>
      </g>
      <g id="Path_2" data-name="Path 2" transform="matrix(0.809, -0.588, 0.588, 0.809, 1271, 950.115)" fill="#a19ab2">
        <path d="M 502.5971984863281 44.53014755249023 L 1.360123753547668 13.17496585845947 L 0.5359072089195251 0.5344712734222412 L 501.7729187011719 31.88965225219727 L 502.5971984863281 44.53014755249023 Z" stroke="none"/>
        <path d="M 1.071807861328125 1.069011688232422 L 1.8304443359375 12.703369140625 L 502.061279296875 43.99560546875 L 501.3026428222656 32.36124801635742 L 1.071807861328125 1.069011688232422 M 0 -3.814697265625e-06 L 502.2432556152344 31.41812133789062 L 503.1331176757812 45.06462097167969 L 0.889801025390625 13.6464958190918 L 0 -3.814697265625e-06 Z" stroke="none" fill="#707070"/>
      </g>
      <g id="Path_3" data-name="Path 3" transform="matrix(0.809, -0.588, 0.588, 0.809, 1271, 798.945)" fill="#a19ab2">
        <path d="M 502.5971984863281 44.53014755249023 L 1.360123753547668 13.17496585845947 L 0.5359072089195251 0.5344712734222412 L 501.7729187011719 31.88965225219727 L 502.5971984863281 44.53014755249023 Z" stroke="none"/>
        <path d="M 1.071807861328125 1.069011688232422 L 1.8304443359375 12.703369140625 L 502.061279296875 43.99560546875 L 501.3026428222656 32.36124801635742 L 1.071807861328125 1.069011688232422 M 0 -3.814697265625e-06 L 502.2432556152344 31.41812133789062 L 503.1331176757812 45.06462097167969 L 0.889801025390625 13.6464958190918 L 0 -3.814697265625e-06 Z" stroke="none" fill="#707070"/>
      </g>
      <g id="Path_4" data-name="Path 4" transform="matrix(0.809, -0.588, 0.588, 0.809, 1271, 1100.135)" fill="#a19ab2">
        <path d="M 502.5971984863281 44.53014755249023 L 1.360123753547668 13.17496585845947 L 0.5359072089195251 0.5344712734222412 L 501.7729187011719 31.88965225219727 L 502.5971984863281 44.53014755249023 Z" stroke="none"/>
        <path d="M 1.071807861328125 1.069011688232422 L 1.8304443359375 12.703369140625 L 502.061279296875 43.99560546875 L 501.3026428222656 32.36124801635742 L 1.071807861328125 1.069011688232422 M 0 -3.814697265625e-06 L 502.2432556152344 31.41812133789062 L 503.1331176757812 45.06462097167969 L 0.889801025390625 13.6464958190918 L 0 -3.814697265625e-06 Z" stroke="none" fill="#707070"/>
      </g>
      <g id="Path_5" data-name="Path 5" transform="matrix(0.809, -0.588, 0.588, 0.809, 1271, 723.793)" fill="#a19ab2">
        <path d="M 502.5971984863281 44.53014755249023 L 1.360123753547668 13.17496585845947 L 0.5359072089195251 0.5344712734222412 L 501.7729187011719 31.88965225219727 L 502.5971984863281 44.53014755249023 Z" stroke="none"/>
        <path d="M 1.071807861328125 1.069011688232422 L 1.8304443359375 12.703369140625 L 502.061279296875 43.99560546875 L 501.3026428222656 32.36124801635742 L 1.071807861328125 1.069011688232422 M 0 -3.814697265625e-06 L 502.2432556152344 31.41812133789062 L 503.1331176757812 45.06462097167969 L 0.889801025390625 13.6464958190918 L 0 -3.814697265625e-06 Z" stroke="none" fill="#707070"/>
      </g>
      <g id="Path_6" data-name="Path 6" transform="matrix(0.809, -0.588, 0.588, 0.809, 1271, 1026.682)" fill="#a19ab2">
        <path d="M 502.5971984863281 44.53014755249023 L 1.360123753547668 13.17496585845947 L 0.5359072089195251 0.5344712734222412 L 501.7729187011719 31.88965225219727 L 502.5971984863281 44.53014755249023 Z" stroke="none"/>
        <path d="M 1.071807861328125 1.069011688232422 L 1.8304443359375 12.703369140625 L 502.061279296875 43.99560546875 L 501.3026428222656 32.36124801635742 L 1.071807861328125 1.069011688232422 M 0 -3.814697265625e-06 L 502.2432556152344 31.41812133789062 L 503.1331176757812 45.06462097167969 L 0.889801025390625 13.6464958190918 L 0 -3.814697265625e-06 Z" stroke="none" fill="#707070"/>
      </g>
      <g id="Path_7" data-name="Path 7" transform="matrix(0.809, -0.588, 0.588, 0.809, 1271, 874.53)" fill="#a19ab2">
        <path d="M 502.5971984863281 44.53014755249023 L 1.360123753547668 13.17496585845947 L 0.5359072089195251 0.5344712734222412 L 501.7729187011719 31.88965225219727 L 502.5971984863281 44.53014755249023 Z" stroke="none"/>
        <path d="M 1.071807861328125 1.069011688232422 L 1.8304443359375 12.703369140625 L 502.061279296875 43.99560546875 L 501.3026428222656 32.36124801635742 L 1.071807861328125 1.069011688232422 M 0 -3.814697265625e-06 L 502.2432556152344 31.41812133789062 L 503.1331176757812 45.06462097167969 L 0.889801025390625 13.6464958190918 L 0 -3.814697265625e-06 Z" stroke="none" fill="#707070"/>
      </g>
      <g id="Path_8" data-name="Path 8" transform="matrix(0.809, -0.588, 0.588, 0.809, 1271, 1177.135)" fill="#a19ab2">
        <path d="M 502.5971984863281 44.53014755249023 L 1.360123753547668 13.17496585845947 L 0.5359072089195251 0.5344712734222412 L 501.7729187011719 31.88965225219727 L 502.5971984863281 44.53014755249023 Z" stroke="none"/>
        <path d="M 1.071807861328125 1.069011688232422 L 1.8304443359375 12.703369140625 L 502.061279296875 43.99560546875 L 501.3026428222656 32.36124801635742 L 1.071807861328125 1.069011688232422 M 0 -3.814697265625e-06 L 502.2432556152344 31.41812133789062 L 503.1331176757812 45.06462097167969 L 0.889801025390625 13.6464958190918 L 0 -3.814697265625e-06 Z" stroke="none" fill="#707070"/>
      </g>
      <g id="Path_9" data-name="Path 9" transform="matrix(0.809, -0.588, 0.588, 0.809, 1271, 685.793)" fill="#a19ab2">
        <path d="M 502.5971984863281 44.53014755249023 L 1.360123753547668 13.17496585845947 L 0.5359072089195251 0.5344712734222412 L 501.7729187011719 31.88965225219727 L 502.5971984863281 44.53014755249023 Z" stroke="none"/>
        <path d="M 1.071807861328125 1.069011688232422 L 1.8304443359375 12.703369140625 L 502.061279296875 43.99560546875 L 501.3026428222656 32.36124801635742 L 1.071807861328125 1.069011688232422 M 0 -3.814697265625e-06 L 502.2432556152344 31.41812133789062 L 503.1331176757812 45.06462097167969 L 0.889801025390625 13.6464958190918 L 0 -3.814697265625e-06 Z" stroke="none" fill="#707070"/>
      </g>
      <g id="Path_10" data-name="Path 10" transform="matrix(0.809, -0.588, 0.588, 0.809, 1271, 988.398)" fill="#a19ab2">
        <path d="M 502.5971984863281 44.53014755249023 L 1.360123753547668 13.17496585845947 L 0.5359072089195251 0.5344712734222412 L 501.7729187011719 31.88965225219727 L 502.5971984863281 44.53014755249023 Z" stroke="none"/>
        <path d="M 1.071807861328125 1.069011688232422 L 1.8304443359375 12.703369140625 L 502.061279296875 43.99560546875 L 501.3026428222656 32.36124801635742 L 1.071807861328125 1.069011688232422 M 0 -3.814697265625e-06 L 502.2432556152344 31.41812133789062 L 503.1331176757812 45.06462097167969 L 0.889801025390625 13.6464958190918 L 0 -3.814697265625e-06 Z" stroke="none" fill="#707070"/>
      </g>
      <g id="Path_11" data-name="Path 11" transform="matrix(0.809, -0.588, 0.588, 0.809, 1271, 836.247)" fill="#a19ab2">
        <path d="M 502.5971984863281 44.53014755249023 L 1.360123753547668 13.17496585845947 L 0.5359072089195251 0.5344712734222412 L 501.7729187011719 31.88965225219727 L 502.5971984863281 44.53014755249023 Z" stroke="none"/>
        <path d="M 1.071807861328125 1.069011688232422 L 1.8304443359375 12.703369140625 L 502.061279296875 43.99560546875 L 501.3026428222656 32.36124801635742 L 1.071807861328125 1.069011688232422 M 0 -3.814697265625e-06 L 502.2432556152344 31.41812133789062 L 503.1331176757812 45.06462097167969 L 0.889801025390625 13.6464958190918 L 0 -3.814697265625e-06 Z" stroke="none" fill="#707070"/>
      </g>
      <g id="Path_12" data-name="Path 12" transform="matrix(0.809, -0.588, 0.588, 0.809, 1271, 1139.135)" fill="#a19ab2">
        <path d="M 502.5971984863281 44.53014755249023 L 1.360123753547668 13.17496585845947 L 0.5359072089195251 0.5344712734222412 L 501.7729187011719 31.88965225219727 L 502.5971984863281 44.53014755249023 Z" stroke="none"/>
        <path d="M 1.071807861328125 1.069011688232422 L 1.8304443359375 12.703369140625 L 502.061279296875 43.99560546875 L 501.3026428222656 32.36124801635742 L 1.071807861328125 1.069011688232422 M 0 -3.814697265625e-06 L 502.2432556152344 31.41812133789062 L 503.1331176757812 45.06462097167969 L 0.889801025390625 13.6464958190918 L 0 -3.814697265625e-06 Z" stroke="none" fill="#707070"/>
      </g>
      <g id="Path_13" data-name="Path 13" transform="matrix(0.809, -0.588, 0.588, 0.809, 1271, 762.793)" fill="#a19ab2">
        <path d="M 502.5971984863281 44.53014755249023 L 1.360123753547668 13.17496585845947 L 0.5359072089195251 0.5344712734222412 L 501.7729187011719 31.88965225219727 L 502.5971984863281 44.53014755249023 Z" stroke="none"/>
        <path d="M 1.071807861328125 1.069011688232422 L 1.8304443359375 12.703369140625 L 502.061279296875 43.99560546875 L 501.3026428222656 32.36124801635742 L 1.071807861328125 1.069011688232422 M 0 -3.814697265625e-06 L 502.2432556152344 31.41812133789062 L 503.1331176757812 45.06462097167969 L 0.889801025390625 13.6464958190918 L 0 -3.814697265625e-06 Z" stroke="none" fill="#707070"/>
      </g>
      <g id="Path_14" data-name="Path 14" transform="matrix(0.809, -0.588, 0.588, 0.809, 1271, 1063.984)" fill="#a19ab2">
        <path d="M 502.5971984863281 44.53014755249023 L 1.360123753547668 13.17496585845947 L 0.5359072089195251 0.5344712734222412 L 501.7729187011719 31.88965225219727 L 502.5971984863281 44.53014755249023 Z" stroke="none"/>
        <path d="M 1.071807861328125 1.069011688232422 L 1.8304443359375 12.703369140625 L 502.061279296875 43.99560546875 L 501.3026428222656 32.36124801635742 L 1.071807861328125 1.069011688232422 M 0 -3.814697265625e-06 L 502.2432556152344 31.41812133789062 L 503.1331176757812 45.06462097167969 L 0.889801025390625 13.6464958190918 L 0 -3.814697265625e-06 Z" stroke="none" fill="#707070"/>
      </g>
      <g id="Path_15" data-name="Path 15" transform="matrix(0.809, -0.588, 0.588, 0.809, 1271, 912.813)" fill="#a19ab2">
        <path d="M 502.5971984863281 44.53014755249023 L 1.360123753547668 13.17496585845947 L 0.5359072089195251 0.5344712734222412 L 501.7729187011719 31.88965225219727 L 502.5971984863281 44.53014755249023 Z" stroke="none"/>
        <path d="M 1.071807861328125 1.069011688232422 L 1.8304443359375 12.703369140625 L 502.061279296875 43.99560546875 L 501.3026428222656 32.36124801635742 L 1.071807861328125 1.069011688232422 M 0 -3.814697265625e-06 L 502.2432556152344 31.41812133789062 L 503.1331176757812 45.06462097167969 L 0.889801025390625 13.6464958190918 L 0 -3.814697265625e-06 Z" stroke="none" fill="#707070"/>
      </g>
      <g id="Path_16" data-name="Path 16" transform="matrix(0.809, -0.588, 0.588, 0.809, 1271, 1216.135)" fill="#a19ab2">
        <path d="M 502.5971984863281 44.53014755249023 L 1.360123753547668 13.17496585845947 L 0.5359072089195251 0.5344712734222412 L 501.7729187011719 31.88965225219727 L 502.5971984863281 44.53014755249023 Z" stroke="none"/>
        <path d="M 1.071807861328125 1.069011688232422 L 1.8304443359375 12.703369140625 L 502.061279296875 43.99560546875 L 501.3026428222656 32.36124801635742 L 1.071807861328125 1.069011688232422 M 0 -3.814697265625e-06 L 502.2432556152344 31.41812133789062 L 503.1331176757812 45.06462097167969 L 0.889801025390625 13.6464958190918 L 0 -3.814697265625e-06 Z" stroke="none" fill="#707070"/>
      </g>
    </g>
  </g>
</svg>
