<svg xmlns="http://www.w3.org/2000/svg" xmlns:xlink="http://www.w3.org/1999/xlink" width="244" height="249" viewBox="0 0 244 249">
  <defs>
    <clipPath id="clip-path">
      <rect id="Rectangle_16" data-name="Rectangle 16" width="244" height="249" transform="translate(1279.251 623)" fill="#fc9b17"/>
    </clipPath>
  </defs>
  <g id="Mask_Group_1" data-name="Mask Group 1" transform="translate(-1279.251 -623)" clip-path="url(#clip-path)">
    <g id="Group_1" data-name="Group 1" transform="translate(1258.357 438.495)">
      <path id="Path_1" data-name="Path 1" d="M0,0,340.759,21.316l.6,9.259L.6,9.259Z" transform="matrix(0.809, -0.588, 0.588, 0.809, 0, 200.648)" fill="#fc9b17"/>
      <path id="Path_2" data-name="Path 2" d="M0,0,340.759,21.316l.6,9.259L.6,9.259Z" transform="matrix(0.809, -0.588, 0.588, 0.809, 0, 406.444)" fill="#fc9b17"/>
      <path id="Path_3" data-name="Path 3" d="M0,0,340.759,21.316l.6,9.259L.6,9.259Z" transform="matrix(0.809, -0.588, 0.588, 0.809, 0, 303.879)" fill="#fc9b17"/>
      <path id="Path_4" data-name="Path 4" d="M0,0,340.759,21.316l.6,9.259L.6,9.259Z" transform="matrix(0.809, -0.588, 0.588, 0.809, 0, 508.229)" fill="#fc9b17"/>
      <path id="Path_5" data-name="Path 5" d="M0,0,340.759,21.316l.6,9.259L.6,9.259Z" transform="matrix(0.809, -0.588, 0.588, 0.809, 0, 252.891)" fill="#fc9b17"/>
      <path id="Path_6" data-name="Path 6" d="M0,0,340.759,21.316l.6,9.259L.6,9.259Z" transform="matrix(0.809, -0.588, 0.588, 0.809, 0, 458.392)" fill="#fc9b17"/>
      <path id="Path_7" data-name="Path 7" d="M0,0,340.759,21.316l.6,9.259L.6,9.259Z" transform="matrix(0.809, -0.588, 0.588, 0.809, 0, 355.161)" fill="#fc9b17"/>
      <path id="Path_8" data-name="Path 8" d="M0,0,340.759,21.316l.6,9.259L.6,9.259Z" transform="matrix(0.809, -0.588, 0.588, 0.809, 0, 560.471)" fill="#fc9b17"/>
      <path id="Path_9" data-name="Path 9" d="M0,0,340.759,21.316l.6,9.259L.6,9.259Z" transform="matrix(0.809, -0.588, 0.588, 0.809, 0, 227.109)" fill="#fc9b17"/>
      <path id="Path_10" data-name="Path 10" d="M0,0,340.759,21.316l.6,9.259L.6,9.259Z" transform="matrix(0.809, -0.588, 0.588, 0.809, 0, 432.418)" fill="#fc9b17"/>
      <path id="Path_11" data-name="Path 11" d="M0,0,340.759,21.316l.6,9.259L.6,9.259Z" transform="matrix(0.809, -0.588, 0.588, 0.809, 0, 329.187)" fill="#fc9b17"/>
      <path id="Path_12" data-name="Path 12" d="M0,0,340.759,21.316l.6,9.259L.6,9.259Z" transform="matrix(0.809, -0.588, 0.588, 0.809, 0, 534.689)" fill="#fc9b17"/>
      <path id="Path_13" data-name="Path 13" d="M0,0,340.759,21.316l.6,9.259L.6,9.259Z" transform="matrix(0.809, -0.588, 0.588, 0.809, 0, 279.351)" fill="#fc9b17"/>
      <path id="Path_14" data-name="Path 14" d="M0,0,340.759,21.316l.6,9.259L.6,9.259Z" transform="matrix(0.809, -0.588, 0.588, 0.809, 0, 483.701)" fill="#fc9b17"/>
      <path id="Path_15" data-name="Path 15" d="M0,0,340.759,21.316l.6,9.259L.6,9.259Z" transform="matrix(0.809, -0.588, 0.588, 0.809, 0, 381.136)" fill="#fc9b17"/>
      <path id="Path_16" data-name="Path 16" d="M0,0,340.759,21.316l.6,9.259L.6,9.259Z" transform="matrix(0.809, -0.588, 0.588, 0.809, 0, 586.932)" fill="#fc9b17"/>
    </g>
  </g>
</svg>
