<svg xmlns="http://www.w3.org/2000/svg" width="159.669" height="159.858" viewBox="0 0 159.669 159.858">
  <path id="Subtraction_2" data-name="Subtraction 2" d="M79.958,254.858a80.576,80.576,0,0,1-16.114-1.624,79.536,79.536,0,0,1-28.591-12.027A80.166,80.166,0,0,1,6.283,206.041a79.507,79.507,0,0,1-4.659-15,80.68,80.68,0,0,1,0-32.217A79.477,79.477,0,0,1,13.655,130.24a80.187,80.187,0,0,1,35.179-28.959,79.574,79.574,0,0,1,15.009-4.657A80.577,80.577,0,0,1,79.958,95v86.249h79.711a79.866,79.866,0,0,1-79.711,73.609Z" transform="translate(159.669 254.858) rotate(180)" fill="#fff" opacity="0.162"/>
</svg>
