<svg xmlns="http://www.w3.org/2000/svg" width="429.338" height="429.999" viewBox="0 0 429.338 429.999">
  <g id="Subtraction_1" data-name="Subtraction 1" transform="translate(0 -95)" fill="none">
    <path d="M215,525a216.6,216.6,0,0,1-43.33-4.368,213.827,213.827,0,0,1-76.879-32.351,215.626,215.626,0,0,1-77.9-94.594A213.917,213.917,0,0,1,4.368,353.33a217.095,217.095,0,0,1,0-86.66,213.825,213.825,0,0,1,32.351-76.878,215.627,215.627,0,0,1,94.594-77.9A213.916,213.916,0,0,1,171.67,99.368,216.593,216.593,0,0,1,215,95V327H429.338A214.757,214.757,0,0,1,215,525Z" stroke="none"/>
    <path d="M 215.0001068115234 521.999755859375 C 228.69921875 521.999755859375 242.4033355712891 520.6848754882812 255.7318267822266 518.0916748046875 C 268.7312316894531 515.5623779296875 281.5519409179688 511.7830810546875 293.8379516601562 506.8587036132812 C 305.9026184082031 502.0230407714844 317.5958862304688 496.0260314941406 328.5929565429688 489.0343017578125 C 339.4776611328125 482.1139831542969 349.7965087890625 474.1459655761719 359.2627868652344 465.3515930175781 C 368.7123413085938 456.57275390625 377.4083251953125 446.8814392089844 385.1091613769531 436.5467529296875 C 392.8631591796875 426.1407165527344 399.688232421875 414.974365234375 405.394775390625 403.3578796386719 C 411.1881713867188 391.5647583007812 415.8951721191406 379.1710815429688 419.3850708007812 366.5212097167969 C 422.6675720214844 354.6227722167969 424.9124450683594 342.3530883789062 426.0692443847656 329.9996948242188 L 212.0000610351562 329.9996948242188 L 212.0001068115234 98.02142333984375 C 198.6176605224609 98.20871734619141 185.267578125 99.64822387695312 172.2714996337891 102.3075332641602 C 158.6613311767578 105.0925369262695 145.2738952636719 109.2482604980469 132.4810028076172 114.6591491699219 C 119.9196701049805 119.9720916748047 107.8041152954102 126.5482025146484 96.47088623046875 134.2048645019531 C 85.24433135986328 141.7893676757812 74.68739318847656 150.4995880126953 65.09339141845703 160.0936431884766 C 55.49944686889648 169.6875305175781 46.78911209106445 180.2444305419922 39.20450210571289 191.4710388183594 C 31.54777908325195 202.8043670654297 24.9716682434082 214.9198760986328 19.65883445739746 227.4809875488281 C 14.24794578552246 240.2734832763672 10.09227848052979 253.6608123779297 7.307167530059814 267.2712707519531 C 4.449111938476562 281.238037109375 3.000000953674316 295.6139831542969 3.000000953674316 309.9996032714844 C 3.000000953674316 324.38525390625 4.449111938476562 338.7613220214844 7.307167530059814 352.728271484375 C 10.09227848052979 366.3386535644531 14.24794578552246 379.7261047363281 19.65883445739746 392.5187683105469 C 24.97172355651855 405.0800476074219 31.5478343963623 417.1955871582031 39.20450210571289 428.5288696289062 C 46.78883361816406 439.7551879882812 55.49911117553711 450.3121337890625 65.09339141845703 459.9063720703125 C 74.68722534179688 469.5003051757812 85.24417114257812 478.2106018066406 96.47088623046875 485.7952575683594 C 107.8042221069336 493.4519348144531 119.9197769165039 500.0280456542969 132.4810028076172 505.3409118652344 C 145.2732238769531 510.751708984375 158.6606750488281 514.9074096679688 172.2714385986328 517.6925659179688 C 186.2386169433594 520.5506591796875 200.6146087646484 521.999755859375 215.0001068115234 521.999755859375 M 215.0001068115234 524.999755859375 C 200.4128875732422 524.999755859375 185.8345031738281 523.5300903320312 171.6700592041016 520.6317138671875 C 157.8656158447266 517.806884765625 144.2872772216797 513.5919799804688 131.3123321533203 508.1039123535156 C 118.5725021362305 502.7154846191406 106.2851104736328 496.0460815429688 94.79144287109375 488.2811584472656 C 83.40672302246094 480.5896911621094 72.70111083984375 471.7568054199219 62.9720573425293 462.0277099609375 C 53.24277877807617 452.2984313964844 44.40983581542969 441.5928039550781 36.71861267089844 430.2083129882812 C 28.95366668701172 418.7146911621094 22.28427886962891 406.4273071289062 16.89583396911621 393.6874389648438 C 11.4077787399292 380.7123107910156 7.192834377288818 367.1339721679688 4.368056297302246 353.3297119140625 C 1.469612002372742 339.1651611328125 8.68055508362886e-07 324.5868225097656 8.68055508362886e-07 309.9996032714844 C 8.68055508362886e-07 295.4124755859375 1.469612002372742 280.8341979980469 4.368056297302246 266.6697998046875 C 7.192834377288818 252.8655395507812 11.4077787399292 239.2872619628906 16.89583396911621 226.3123168945312 C 22.28427886962891 213.5724792480469 28.95366668701172 201.2852020263672 36.71861267089844 189.7915954589844 C 44.40994644165039 178.4070892333984 53.24283599853516 167.7014770507812 62.9720573425293 157.9723205566406 C 72.70127868652344 148.2430877685547 83.40694427490234 139.4102020263672 94.79144287109375 131.7189788818359 C 106.2851104736328 123.9539794921875 118.5725021362305 117.2845916748047 131.3123321533203 111.8961486816406 C 144.2873382568359 106.408203125 157.8656616210938 102.1931991577148 171.6700592041016 99.36842346191406 C 185.8343353271484 96.4700927734375 200.4126739501953 95.00042724609375 215.0001068115234 95.00042724609375 L 215.0000610351562 326.9996948242188 L 429.3379516601562 326.9996948242188 C 428.2719421386719 340.6360473632812 425.8959350585938 354.2010803222656 422.2770080566406 367.3190307617188 C 418.7373352050781 380.1494140625 413.9632263183594 392.7196960449219 408.08740234375 404.6806335449219 C 402.2999877929688 416.4617004394531 395.3783874511719 427.7861022949219 387.5147705078125 438.3392639160156 C 379.7056579589844 448.8192138671875 370.8872680664062 458.6470336914062 361.3046569824219 467.5494689941406 C 351.7048950195312 476.4678649902344 341.2406005859375 484.5481567382812 330.2025451660156 491.5659790039062 C 319.0494995117188 498.6568603515625 307.1901550292969 504.7389831542969 294.9540710449219 509.6433715820312 C 282.4931030273438 514.6378784179688 269.4896240234375 518.4710693359375 256.3047790527344 521.0364379882812 C 242.7881622314453 523.666259765625 228.8913269042969 524.999755859375 215.0001068115234 524.999755859375 Z" stroke="none" fill="#fff"/>
  </g>
</svg>
